<svg xmlns="http://www.w3.org/2000/svg" viewBox="0 0 513.91 273.61"><defs><style>.cls-1{fill:#ed2911;}.cls-2{fill:#ed2910;}.cls-3{fill:#ec2911;}.cls-4{fill:#f7ad0c;}.cls-5{fill:#f71704;}.cls-6{fill:#150b0a;}.cls-7{fill:#fff;}</style></defs><g id="Capa_2" data-name="Capa 2"><g id="Capa_1-2" data-name="Capa 1"><path class="cls-1" d="M198,100.2c.07,14.93-2.48,29.15-10.94,41.82C178.9,154.25,166.32,159.77,153,164a72.94,72.94,0,0,1-10.7,2.27c-3.16.49-4.36,1.47-3,4.9,4.9,12.12,13.83,13.89,23,4.39a38.7,38.7,0,0,0,7.89-12c1-2.42,2.38-2.89,4.64-2.11q11.79,4.06,23.6,8.07c1.89.64,2.8,1.61,1.84,3.7-8.33,18.06-19,34.06-39.92,38.76-19.66,4.42-41.42-5.2-50.46-29.28-6.34-16.89-6.86-34.42-5.4-52.12.37-4.47,1-8.92,1.38-13.39.12-1.25.52-2.91-1.49-3.07-3.77-.29-3.46-2.53-3-5.29q2-10.8,3.55-21.64c.48-3.28,1.47-4.78,5.38-4.13a265.22,265.22,0,0,0,52.21,3.09,199.35,199.35,0,0,0,29.29-2.69c4.13-.74,5.47.71,5.64,4.36C197.65,91.89,197.82,96.05,198,100.2Zm-43.26,16.93v.16c-4.65,0-9.3.08-13.95,0-2.36-.06-3.71.49-3.93,3.18-.43,5.45-1.14,10.88-1.74,16.31-.27,2.39.66,3.36,3.14,3a64.72,64.72,0,0,0,13.43-3.56c8.18-3.11,14.73-8.15,18.73-16.18,1.11-2.22.78-2.94-1.74-2.89C164,117.21,159.39,117.13,154.75,117.13Z"/><path class="cls-2" d="M394.65,165.74c3.26,1.22,6.52,2.48,9.81,3.63,2.12.74,3,2,2.08,4.17C399,190.22,388.87,204.8,370.69,211c-22.62,7.67-46.35-5.47-54.94-29.74-6.36-18-6.22-36.54-4.58-55.21a68.46,68.46,0,0,1,.89-7.43c.48-2.44,1.09-4.58-2.54-5-2.45-.26-2-2.38-1.78-3.93,1.29-8.2,2.75-16.38,4.05-24.59.51-3.21,2.7-2.25,4.57-2,13.54,1.69,27.09,3.11,40.77,3.12a266.38,266.38,0,0,0,41.77-2.9c3.46-.55,4.45.36,4.84,4,1.77,16.16.72,31.86-5.85,46.95A89.92,89.92,0,0,1,391.7,145a64.69,64.69,0,0,1-13.08,10.64,80.69,80.69,0,0,1-29.34,10.53c-1.7.27-4.86-.28-4.08,2.84,1.17,4.68,3,9.27,7.78,11.63s8.74.68,12.51-2.18a36.2,36.2,0,0,0,11-14.58c1.21-2.74,2.66-3.28,5.41-2.36,3.6,1.21,6.95,3.22,10.84,3.5h0Zm-33.42-48.56v.25c-2,0-4,0-6,0-11.36-.22-11.51-.24-12.73,10.91-1.53,14-2.34,12.83,11.12,9.31,9.12-2.38,17.39-6.86,22.17-15.74.69-1.27,2.23-2.53,1.48-4s-2.69-.64-4.07-.67C369.22,117.12,365.22,117.18,361.23,117.18Z"/><path class="cls-1" d="M414.85,118c-.31-7.94.74-17.73.92-27.54.08-3.89,1.57-4.89,5.12-4.45,9.23,1.14,18.53,1.32,27.77,2.68,9.08,1.34,18.28-.27,27.38-1,9.59-.76,19.12-2.35,28.66-3.71,2.53-.36,3.77-.18,4.24,2.93,1.21,8,3,16,4.5,24,.12.65.44,1.66.15,1.93-5.9,5.44-2,11.91-1.44,17.68,2.46,26.12,2.68,52.13-1.48,78.11-.59,3.7-2.34,4.11-5.47,3.4-6.81-1.53-13.62-3.17-20.51-4.16-4.61-.67-5.65-2.71-4.85-6.94,2.66-14,3.13-28.08,2.74-42.24-.33-12-1.64-23.89-2.85-35.8-.31-3-1.56-4.15-4.49-3.71-8.11,1.2-16.28,1-24.43.93-3.68-.06-4.38,1.42-4.37,4.71a397.17,397.17,0,0,0,7.92,78.27c.83,4,.25,6.11-4.21,6.84-7.37,1.2-14.69,2.74-22,4.43-2.8.65-3.83,0-4.4-2.79C418.18,184.2,414.91,151.11,414.85,118Z"/><path class="cls-3" d="M51.36,118c-3.16,0-6.34-.19-9.48.07-2.16.18-5.24-1.78-6.17,2.12-1.08,4.53.86,9.21,4.47,10.59a11.06,11.06,0,0,0,2.93.53c5.79.55,11.64.73,17.36,1.67,17.3,2.85,29.43,14.14,33.11,30.38,3.87,17.06-2.34,33.16-16.7,43.28-16.9,11.91-44.54,11.55-63.8-.82-11.91-7.65-11.91-7.65-4.24-19.46,2.27-3.48,4.63-6.91,6.74-10.48,1.54-2.61,2.89-2.94,5.42-1,6.75,5.2,14.58,7.89,23,8.87,5.22.61,10.29.25,14.86-2.81,3.62-2.41,4.87-5.8,4.14-9.93s-3.25-6.24-7.26-7.21c-5.73-1.38-11.59-.52-17.37-1.47C17,158.85,4,143.64,3.88,122c0-3.09,2.43-7.51-3.37-8.67-.83-.17-.44-1.79-.26-2.76,1.48-8,3.14-16,4.36-24,.48-3.21,1.91-3.82,4.68-3.28,17.1,3.32,34.39,3.37,51.72,2.94,8.5-.21,16.9-1.4,25.3-2.51,2.74-.37,3.51.43,3.9,2.87,1.34,8.19,2.75,16.38,4.29,24.54.77,4.08-2.61,3.39-4.4,3.67A274.47,274.47,0,0,1,51.36,118Z"/><path class="cls-3" d="M256.81,169.06c8.05-19.24,15.7-38.46,13.84-60a24.33,24.33,0,0,0-3.91-11.21c-1.17-1.8-.9-3,.74-4.17Q277.9,86,288.25,78.21c2.28-1.71,3.14,0,4.21,1.58,6.79,10.13,9.59,21.49,10.05,33.48.75,19.54-4.93,37.83-11.84,55.71-4.37,11.3-9.74,22.2-14.66,33.28-.27.61-.53,1.23-.77,1.85-3.15,8.34-3.15,8.3-12.23,7.72-5.31-.34-10.63-.7-15.95-.71a6.44,6.44,0,0,1-6.09-3.35c-22-35.11-34.25-73.25-36.31-114.69-.26-5.22,1.32-6.52,6.32-6.3a196.74,196.74,0,0,0,20.45-.53c3.41-.2,4.48.85,4.61,4.39a197.58,197.58,0,0,0,17.5,74.25C254.19,166.35,254.52,168.13,256.81,169.06Z"/><path class="cls-4" d="M278.54,32.41c-1.15,0-1.09,1.1-1.15,1.82a9.3,9.3,0,0,1-.89,3.27,10,10,0,0,1-9,5.39c-6.94,0-10.9-4.78-9.61-12.66a8.84,8.84,0,0,1,.39-1.49,36.91,36.91,0,0,0,2.16-12.16c0-5.78-.73-13-3.72-15.4A4.27,4.27,0,0,0,253,.08c-1.08.24-1.19.93-1,1.56a6.87,6.87,0,0,1-.16,4.3,12.29,12.29,0,0,1-2.72,3.91c-5,5-10.37,9.66-15.2,14.83-8.46,9-12.49,19.53-8.55,31.92,4.44,14,19.43,22.44,33.93,19.51,12.33-2.49,23.39-14.08,23.39-32C282.69,40.4,279.8,32.46,278.54,32.41Zm-15,33.09a12.87,12.87,0,0,1-15.22,3.81,12.7,12.7,0,0,1-7.09-13.94c1.7-7.64,6.26-13.37,12.29-18.09.32,3.44,1.64,6.21,4.33,8a20.42,20.42,0,0,1,6,6.16C266.92,56.52,266.82,61.18,263.56,65.5Z"/><path class="cls-5" d="M263.56,65.5a12.87,12.87,0,0,1-15.22,3.81,12.7,12.7,0,0,1-7.09-13.94c1.7-7.64,6.26-13.37,12.29-18.09.32,3.44,1.64,6.21,4.33,8a20.42,20.42,0,0,1,6,6.16C266.92,56.52,266.82,61.18,263.56,65.5Z"/><path class="cls-6" d="M394.65,165.74l-1.91-.7Z"/><path class="cls-7" d="M32.87,273.57a10.24,10.24,0,0,1-5.24-1.23,7.72,7.72,0,0,1-3.19-3.59,15.63,15.63,0,0,1-1.2-5.8l5.46-1.08a16.51,16.51,0,0,0,.5,3.57,5.16,5.16,0,0,0,1.24,2.39,3,3,0,0,0,2.22.83,2.47,2.47,0,0,0,2.19-.92,4,4,0,0,0,.65-2.34,6.31,6.31,0,0,0-1-3.74,15.71,15.71,0,0,0-2.75-2.93l-4.38-3.87a13,13,0,0,1-2.95-3.55,9.75,9.75,0,0,1-1.1-4.83,8.28,8.28,0,0,1,2.41-6.37,9.3,9.3,0,0,1,6.58-2.23,9.83,9.83,0,0,1,4.09.75,6.64,6.64,0,0,1,2.6,2.08,9.59,9.59,0,0,1,1.44,3,18.56,18.56,0,0,1,.6,3.59l-5.42.94a19.57,19.57,0,0,0-.36-2.92,4.13,4.13,0,0,0-1-2,2.78,2.78,0,0,0-2.09-.73,2.63,2.63,0,0,0-2.17.92,3.53,3.53,0,0,0-.75,2.3,5.22,5.22,0,0,0,.73,2.9,11.59,11.59,0,0,0,2.11,2.35l4.34,3.82a18.27,18.27,0,0,1,3.68,4.24A10.89,10.89,0,0,1,41.6,265a8.84,8.84,0,0,1-1.09,4.43,7.89,7.89,0,0,1-3.06,3A9.21,9.21,0,0,1,32.87,273.57Z"/><path class="cls-7" d="M73.16,273.57a10.94,10.94,0,0,1-6-1.42,7.28,7.28,0,0,1-3-4,21.12,21.12,0,0,1-.82-6.28V238.26h6.19v24.3a19.88,19.88,0,0,0,.22,3.07,4.27,4.27,0,0,0,1,2.32,3.69,3.69,0,0,0,4.81,0,4.66,4.66,0,0,0,1-2.32,18.65,18.65,0,0,0,.24-3.07v-24.3H83v23.57a21.45,21.45,0,0,1-.82,6.28,7.31,7.31,0,0,1-3,4A10.87,10.87,0,0,1,73.16,273.57Z"/><path class="cls-7" d="M115,273.57a10.24,10.24,0,0,1-5.24-1.23,7.72,7.72,0,0,1-3.19-3.59,15.63,15.63,0,0,1-1.2-5.8l5.46-1.08a16.51,16.51,0,0,0,.5,3.57,5.16,5.16,0,0,0,1.24,2.39,3,3,0,0,0,2.22.83,2.47,2.47,0,0,0,2.19-.92,4,4,0,0,0,.64-2.34,6.31,6.31,0,0,0-1-3.74,16.06,16.06,0,0,0-2.75-2.93l-4.39-3.87a13.1,13.1,0,0,1-2.94-3.55,9.75,9.75,0,0,1-1.1-4.83,8.28,8.28,0,0,1,2.41-6.37,9.3,9.3,0,0,1,6.58-2.23,9.78,9.78,0,0,1,4.08.75,6.6,6.6,0,0,1,2.61,2.08,9.59,9.59,0,0,1,1.44,3,18.56,18.56,0,0,1,.6,3.59l-5.42.94a19.57,19.57,0,0,0-.36-2.92,4.13,4.13,0,0,0-1-2,2.78,2.78,0,0,0-2.09-.73,2.61,2.61,0,0,0-2.17.92,3.53,3.53,0,0,0-.75,2.3,5.22,5.22,0,0,0,.73,2.9,11.51,11.51,0,0,0,2.1,2.35l4.35,3.82a18,18,0,0,1,3.67,4.24,10.8,10.8,0,0,1,1.53,5.87,8.75,8.75,0,0,1-1.1,4.43,7.79,7.79,0,0,1-3,3A9.21,9.21,0,0,1,115,273.57Z"/><path class="cls-7" d="M145.83,273.09V238.26h6.32v14.58h7.14V238.26h6.32v34.83h-6.32V257.36h-7.14v15.73Z"/><path class="cls-7" d="M189.39,273.09V238.26h6.28v34.83Z"/><path class="cls-7" d="M255.4,273.57a8.42,8.42,0,0,1-4.2-1,7,7,0,0,1-2.75-2.84,9.1,9.1,0,0,1-1-4.28,11.05,11.05,0,0,1,1.45-5.76,20.76,20.76,0,0,1,3.59-4.52c-.55-1-1.11-2.07-1.68-3.11a19.76,19.76,0,0,1-1.42-3.21,10.23,10.23,0,0,1-.56-3.31,8.44,8.44,0,0,1,.9-4,7,7,0,0,1,2.58-2.73,7.75,7.75,0,0,1,4-1,8.23,8.23,0,0,1,3.84.86,6.63,6.63,0,0,1,3.64,6.11,9.36,9.36,0,0,1-1,4.3,18,18,0,0,1-2.43,3.59c-.95,1.08-1.87,2.07-2.75,3l4.64,7.95a7.92,7.92,0,0,0,.73-2,23.64,23.64,0,0,0,.49-2.58c.13-.92.23-1.77.28-2.54h4.65a19.1,19.1,0,0,1-.41,4A18.87,18.87,0,0,1,267,264a26.05,26.05,0,0,1-1.5,3,4.59,4.59,0,0,0,1.35,1.05,4,4,0,0,0,1.79.5v4.94l-.5.07-.45,0a5.21,5.21,0,0,1-2.15-.54,8.27,8.27,0,0,1-1.8-1.22,17,17,0,0,1-1.47-1.47,8.4,8.4,0,0,1-2.84,2.31A8.69,8.69,0,0,1,255.4,273.57Zm.13-4.3a3.85,3.85,0,0,0,2.23-.65,7.31,7.31,0,0,0,1.63-1.5l-4.77-8a11.28,11.28,0,0,0-1.5,3,10.19,10.19,0,0,0-.52,3.25,6.33,6.33,0,0,0,.3,2,3.13,3.13,0,0,0,.95,1.46A2.53,2.53,0,0,0,255.53,269.27Zm.34-16.69a14.74,14.74,0,0,0,1.42-2.28,15.79,15.79,0,0,0,1.12-2.79,10.2,10.2,0,0,0,.43-2.8,2.4,2.4,0,0,0-.69-1.82,2.35,2.35,0,0,0-1.72-.67,2,2,0,0,0-1.81,1,4.33,4.33,0,0,0-.6,2.34,11.76,11.76,0,0,0,.6,3.68C255,250.43,255.44,251.55,255.87,252.58Z"/><path class="cls-7" d="M329,273.57a9.18,9.18,0,0,1-5.46-1.46,8,8,0,0,1-2.9-4.16,20.31,20.31,0,0,1-.88-6.34V249.92a21.17,21.17,0,0,1,.86-6.45,7.49,7.49,0,0,1,3-4.15,10.73,10.73,0,0,1,6-1.44,11.43,11.43,0,0,1,5.67,1.2,6.83,6.83,0,0,1,3,3.46,14.4,14.4,0,0,1,.93,5.48v1.81h-6.06v-2A14.91,14.91,0,0,0,333,245a3.16,3.16,0,0,0-.95-1.83,3.48,3.48,0,0,0-2.3-.62,3.14,3.14,0,0,0-2.43.82,3.91,3.91,0,0,0-.94,2.15,20.2,20.2,0,0,0-.2,2.92V263a14.48,14.48,0,0,0,.3,3.14,3.75,3.75,0,0,0,1.12,2,3.46,3.46,0,0,0,2.32.71,3.35,3.35,0,0,0,2.37-.77,4.31,4.31,0,0,0,1.14-2.15,14.83,14.83,0,0,0,.32-3.27v-3.27H330v-4h9.46v17.67h-4.08l-.48-3.44a6.64,6.64,0,0,1-2.08,2.82A6,6,0,0,1,329,273.57Z"/><path class="cls-7" d="M362.59,273.09V238.26h8.35a18.34,18.34,0,0,1,5.95.84,6.85,6.85,0,0,1,3.7,2.86,10.35,10.35,0,0,1,1.27,5.51,16.76,16.76,0,0,1-.39,3.78,7.18,7.18,0,0,1-1.31,2.86,5.93,5.93,0,0,1-2.56,1.83l4.86,17.15H376.1l-4.22-15.95H369v15.95ZM369,253.14h2a6.71,6.71,0,0,0,2.94-.54,3.09,3.09,0,0,0,1.57-1.72,8.1,8.1,0,0,0,.47-3,6.62,6.62,0,0,0-1-3.93c-.65-.88-1.87-1.31-3.68-1.31H369Z"/><path class="cls-7" d="M405.16,273.09V238.26h6.28v34.83Z"/><path class="cls-7" d="M435.09,273.09V238.26h6.37v30.45h8.42v4.38Z"/><path class="cls-7" d="M471.47,273.09V238.26h6.36v30.45h8.43v4.38Z"/></g></g></svg>